# xmcd CD database file
#
# Track frame offsets:
#	150
#	20412
#	37670
#	56587
#	82515
#	105972
#	121822
#	129190
#	151147
#	175867
#	197322
#
# Disc length: 2920 seconds
#
# Revision: 0
# Processed by: cddbd v1.5.1PL2 Copyright (c) Steve Scherf et al.
# Submitted via: CDex 1.51
#
DISCID=670b660b
DTITLE=BIG HORNS BEE - For You
DYEAR=1996
DGENRE=Jazz
TTITLE0=BLOWZ JOB
TTITLE1=DEAD OR ALIVE
TTITLE2=GOOD LUCK
TTITLE3=ONLY YOU(AND YOU ALONE)
TTITLE4=HAZE
TTITLE5=月夜にうさを晴らせ
TTITLE6=PAKAPAKA△MOKUBA
TTITLE7=CATHERINE
TTITLE8=DIG THIS
TTITLE9=柴
TTITLE10=PARTY AROUND THE CLOCK
EXTD=YEAR: 1996
EXTT0=
EXTT1=
EXTT2=
EXTT3=
EXTT4=
EXTT5=
EXTT6=
EXTT7=
EXTT8=
EXTT9=
EXTT10=
PLAYORDER=
